<!--?xml version="1.0" encoding="utf-8"?-->
<!-- Generator: Adobe Illustrator 25.2.3, SVG Export Plug-In . SVG Version: 6.00 Build 0)  -->
<svg version="1.1" id="_x34_" xmlns="http://www.w3.org/2000/svg" xmlns:xlink="http://www.w3.org/1999/xlink" x="0px" y="0px" viewBox="0 0 800 717" style="width: 512px;" xml:space="preserve">
<style type="text/css">
	.stblack{fill:#000000;}
	.st0{fill:#FFFFFF;}
</style><style class="darkreader darkreader--sync" media="screen"></style>
<g>
	<path class="st0" d="M735.472,310.792c18.294-29.042,28.903-63.355,28.903-100.025l0,0c0-103.751-84.886-188.639-188.639-188.639
		H298.552c-103.749,0-188.636,84.887-188.636,188.639l0,0c0,16.766,2.229,33.033,6.382,48.535
		C60.69,298.617,24.203,363.393,24.203,436.283v0.001c0,119.15,97.485,216.635,216.636,216.635h286.636l53.738-1.122
		c108.894-11.139,194.585-103.805,194.585-215.513v-0.001C775.797,389.608,760.835,346.26,735.472,310.792z" style="fill: rgb(255, 255, 255); opacity: 1; --darkreader-inline-fill: #e8e6e3;" data-darkreader-inline-fill=""></path>
	<path class="stblack" d="M581.639,655.978c55.519-5.679,105.109-32.139,140.808-71.396c35.704-39.252,57.553-91.359,57.551-148.298l0.002-0.001
		c0-47.579-15.26-91.791-41.109-127.936l-3.418,2.445l3.555,2.24c18.699-29.683,29.551-64.78,29.549-102.265l0.002-0.001
		c-0.017-106.091-86.751-192.825-192.841-192.841H298.552c-106.09,0.016-192.824,86.75-192.839,192.841v0.001
		c-0.002,17.137,2.278,33.773,6.525,49.621l4.06-1.088l-2.427-3.431C57.202,295.93,20.002,361.967,20,436.283v0.001
		c0.014,121.488,99.348,220.822,220.839,220.838h286.636c2.32,0,4.2-1.881,4.2-4.203c0-2.321-1.88-4.202-4.2-4.202l-286.636-0.001
		c-58.417-0.001-111.506-23.889-150.029-62.406C52.294,547.788,28.406,494.7,28.404,436.284l0.002-0.001
		c-0.004-71.465,35.77-134.978,90.318-173.551l2.388-1.689l-0.755-2.83c-4.06-15.155-6.238-31.055-6.24-47.447l0.002-0.001
		c0-50.718,20.739-96.806,54.179-130.254c33.449-33.442,79.537-54.18,130.254-54.181h277.184
		c50.716,0.001,96.806,20.739,130.254,54.181c33.441,33.448,54.179,79.537,54.181,130.254v0.001
		c-0.002,35.857-10.368,69.381-28.258,97.784l-1.505,2.389l1.642,2.295c24.876,34.792,39.542,77.276,39.543,123.048v0.001
		c-0.002,54.769-20.999,104.85-55.365,142.643c-34.368,37.788-82.069,63.23-135.445,68.689c-2.309,0.237-3.99,2.301-3.754,4.61
		c0.237,2.308,2.302,3.988,4.611,3.753h-0.003V655.978z" style="fill: rgb(0, 0, 0); opacity: 1; --darkreader-inline-fill: #e8e6e3;" data-darkreader-inline-fill=""></path>
	<path class="stblack" d="M533.877,637.244l52.328,60.381c1.521,1.754,4.175,1.944,5.928,0.424c1.756-1.521,1.945-4.174,0.426-5.929l-52.328-60.381
		c-1.522-1.754-4.175-1.944-5.929-0.424C532.547,632.835,532.357,635.49,533.877,637.244" style="fill: rgb(0, 0, 0); opacity: 1; --darkreader-inline-fill: #e8e6e3;" data-darkreader-inline-fill=""></path>
</g>
</svg>
